<svg width="25" height="29" viewBox="0 0 25 29" fill="none" xmlns="http://www.w3.org/2000/svg">
<g clip-path="url(#clip0_285_2440)">
<path d="M16.9859 1.98676L8.96418 3.16559C7.60041 3.366 6.41571 4.65992 6.3839 6.03758L5.94536 25.0315C5.91356 26.4091 7.02192 27.3632 8.38569 27.1628L16.4208 25.9733C17.7844 25.7729 18.9259 24.488 18.9577 23.1101L19.4077 4.12235C19.4395 2.73976 18.3552 1.78555 16.9859 1.98676ZM11.7816 4.24611L14.1089 3.9041C14.3133 3.87406 14.476 4.01729 14.4712 4.22445C14.4664 4.4316 14.296 4.62378 14.0916 4.65382L11.7643 4.99583C11.5593 5.02596 11.3972 4.88264 11.4019 4.67549C11.4067 4.46833 11.5766 4.27624 11.7816 4.24611ZM10.3803 4.57092C10.521 4.41198 10.7714 4.37329 10.9054 4.49376C10.9726 4.55301 11.0111 4.64441 11.0088 4.74389C11.0066 4.84147 10.9636 4.94465 10.8932 5.02432C10.8231 5.10394 10.7254 5.15914 10.629 5.1733C10.5308 5.18774 10.4372 5.16065 10.3681 5.10148C10.3012 5.04217 10.2644 4.95053 10.2667 4.85295C10.2688 4.7535 10.3103 4.65035 10.3803 4.57092ZM12.3682 25.837C11.756 25.927 11.2697 25.4967 11.284 24.8782C11.2983 24.2596 11.8078 23.6832 12.42 23.5932C13.0322 23.5032 13.5185 23.9334 13.5042 24.552C13.4899 25.1704 12.9802 25.7471 12.3682 25.837ZM17.8465 22.0358L7.27276 23.5897L7.65793 6.90712L18.2316 5.35328L17.8465 22.0358Z" fill="black"/>
</g>
<defs>
<clipPath id="clip0_285_2440">
<rect width="24" height="24" fill="white" transform="matrix(0.989374 -0.145392 -0.0230822 0.999734 1.08105 4.32405)"/>
</clipPath>
</defs>
</svg>
